<svg width="117" height="117" viewBox="0 0 117 117" fill="none" xmlns="http://www.w3.org/2000/svg">
<path d="M112.715 92.0339C118.428 97.7468 118.428 107.002 112.715 112.715C106.999 118.431 97.7459 118.426 92.0348 112.715L58.5 79.18L24.9652 112.715C19.249 118.431 9.99575 118.426 4.28467 112.715C-1.42823 107.002 -1.42823 97.7468 4.28467 92.0339L37.8195 58.4995L4.28467 24.9652C-1.42823 19.2523 -1.42823 9.99756 4.28467 4.28467C9.99757 -1.42822 19.2523 -1.42822 24.9652 4.28467L58.5 37.8191L92.0348 4.28467C97.7477 -1.42822 107.002 -1.42822 112.715 4.28467C118.428 9.99756 118.428 19.2523 112.715 24.9652L79.1805 58.4995L112.715 92.0339Z" fill="#6A1145"/>
</svg>
