<svg width="116" height="155" viewBox="0 0 116 155" fill="none" xmlns="http://www.w3.org/2000/svg">
<path d="M67.6667 0H48.3333C21.6367 0 0 21.6833 0 48.4375V106.562C0 133.317 21.6367 155 48.3333 155H67.6667C94.3633 155 116 133.317 116 106.562V48.4375C116 21.6833 94.3633 0 67.6667 0ZM106.333 106.562C106.296 127.943 89.0013 145.275 67.6667 145.312H48.3333C26.9987 145.275 9.70443 127.943 9.66667 106.562V48.4375C9.70443 27.0569 26.9987 9.72534 48.3333 9.6875H67.6667C89.0013 9.72534 106.296 27.0569 106.333 48.4375V106.562ZM58 29.0625C55.3284 29.0625 53.1667 31.2289 53.1667 33.9062V53.2812C53.1667 55.9586 55.3284 58.125 58 58.125C60.6716 58.125 62.8333 55.9586 62.8333 53.2812V33.9062C62.8333 31.2289 60.6716 29.0625 58 29.0625Z" fill="#FFD23F"/>
</svg>
