<svg width="20" height="20" viewBox="0 0 20 20" fill="none" xmlns="http://www.w3.org/2000/svg">
<path d="M20 10C20 11.0622 19.1391 11.9231 18.0769 11.9231H11.9231V18.0769C11.9231 19.1391 11.0622 20 10 20C8.93779 20 8.07692 19.1391 8.07692 18.0769V11.9231H1.92308C0.860865 11.9231 0 11.0622 0 10C0 8.93779 0.860865 8.07692 1.92308 8.07692H8.07692V1.92308C8.07692 0.860865 8.93779 0 10 0C11.0622 0 11.9231 0.860865 11.9231 1.92308V8.07692H18.0769C19.1391 8.07692 20 8.93779 20 10Z" fill="#6A1145"/>
</svg>
