<svg width="116" height="115" viewBox="0 0 116 115" fill="none" xmlns="http://www.w3.org/2000/svg">
<path d="M116 57.5C116 63.6077 111.007 68.5577 104.846 68.5577H69.1538V103.942C69.1538 110.05 64.1608 115 58 115C51.8392 115 46.8462 110.05 46.8462 103.942V68.5577H11.1538C4.99302 68.5577 0 63.6077 0 57.5C0 51.3923 4.99302 46.4423 11.1538 46.4423H46.8462V11.0577C46.8462 4.94998 51.8392 0 58 0C64.1608 0 69.1538 4.94998 69.1538 11.0577V46.4423H104.846C111.007 46.4423 116 51.3923 116 57.5Z" fill="#6A1145"/>
</svg>
